<?xml version="1.0" encoding="utf-8"?>
<!-- Generator: Adobe Illustrator 16.0.0, SVG Export Plug-In . SVG Version: 6.00 Build 0)  -->
<!DOCTYPE svg PUBLIC "-//W3C//DTD SVG 1.1//EN" "http://www.w3.org/Graphics/SVG/1.1/DTD/svg11.dtd">
<svg version="1.1" id="Layer_1" xmlns="http://www.w3.org/2000/svg" xmlns:xlink="http://www.w3.org/1999/xlink" x="0px" y="0px"
	 width="512px" height="444.5px" viewBox="0 0 512 444.5" enable-background="new 0 0 512 444.5" xml:space="preserve">
<g>
	<defs>
		<rect id="SVGID_1_" width="512" height="444.5"/>
	</defs>
	<clipPath id="SVGID_2_">
		<use xlink:href="#SVGID_1_"  overflow="visible"/>
	</clipPath>
	<path clip-path="url(#SVGID_2_)" fill="#9D9F90" d="M231.662,422.931h225.868V22.03H231.662V422.931z M447.05,412.45H242.099
		V32.511h83.798v16.438h-8.24c-17.731,0-32.158,14.426-32.158,32.158c0,2.89,2.35,5.24,5.239,5.24h80.797
		c2.866,0,5.198-2.35,5.198-5.24c0-17.732-14.426-32.158-32.158-32.158h-8.197V32.511H447.05V412.45z M344.574,59.429
		c9.164,0,17.396,5.8,20.479,14.433l0.717,2.005h-69.259l0.706-2c3.048-8.636,11.262-14.438,20.438-14.438H344.574z"/>
	<path clip-path="url(#SVGID_2_)" fill="#40434B" d="M304.218,206.7c-2.89,0-5.239,2.351-5.239,5.24v6.74
		c0,2.867,2.35,5.199,5.239,5.199c2.866,0,5.198-2.332,5.198-5.199v-6.74C309.416,209.051,307.084,206.7,304.218,206.7"/>
	<path clip-path="url(#SVGID_2_)" fill="#40434B" d="M304.218,179.783c-2.89,0-5.239,2.351-5.239,5.24v6.698
		c0,2.89,2.35,5.24,5.239,5.24c2.915,0,5.198-2.302,5.198-5.24v-6.698C309.416,182.085,307.133,179.783,304.218,179.783"/>
	<path clip-path="url(#SVGID_2_)" fill="#40434B" d="M304.218,152.864c-2.89,0-5.239,2.332-5.239,5.198v6.74
		c0,2.89,2.35,5.24,5.239,5.24c2.866,0,5.198-2.35,5.198-5.24v-6.74C309.416,155.196,307.084,152.864,304.218,152.864"/>
	<path clip-path="url(#SVGID_2_)" fill="#40434B" d="M304.218,125.904c-2.89,0-5.239,2.351-5.239,5.24v6.74
		c0,2.89,2.35,5.241,5.239,5.241c2.866,0,5.198-2.351,5.198-5.241v-6.74C309.416,128.255,307.084,125.904,304.218,125.904"/>
	<path clip-path="url(#SVGID_2_)" fill="#40434B" d="M304.218,98.986c-2.89,0-5.239,2.351-5.239,5.24v6.74
		c0,2.89,2.35,5.24,5.239,5.24c2.866,0,5.198-2.35,5.198-5.24v-6.74C309.416,101.337,307.084,98.986,304.218,98.986"/>
	<path clip-path="url(#SVGID_2_)" fill="#40434B" d="M304.218,287.498c-2.89,0-5.239,2.331-5.239,5.197v6.74
		c0,2.89,2.35,5.24,5.239,5.24c2.866,0,5.198-2.351,5.198-5.24v-6.74C309.416,289.829,307.084,287.498,304.218,287.498"/>
	<path clip-path="url(#SVGID_2_)" fill="#40434B" d="M304.218,233.619c-2.89,0-5.239,2.351-5.239,5.24v6.739
		c0,2.89,2.35,5.24,5.239,5.24c2.866,0,5.198-2.351,5.198-5.24v-6.739C309.416,235.97,307.084,233.619,304.218,233.619"/>
	<path clip-path="url(#SVGID_2_)" fill="#40434B" d="M304.218,260.537c-2.89,0-5.239,2.351-5.239,5.24v6.74
		c0,2.889,2.35,5.239,5.239,5.239c2.866,0,5.198-2.351,5.198-5.239v-6.74C309.416,262.888,307.084,260.537,304.218,260.537"/>
	<path clip-path="url(#SVGID_2_)" fill="#40434B" d="M331.136,152.864c-2.889,0-5.238,2.332-5.238,5.198v6.74
		c0,2.89,2.35,5.24,5.238,5.24c2.891,0,5.24-2.35,5.24-5.24v-6.74C336.376,155.196,334.026,152.864,331.136,152.864"/>
	<path clip-path="url(#SVGID_2_)" fill="#40434B" d="M331.136,125.904c-2.889,0-5.238,2.351-5.238,5.24v6.74
		c0,2.89,2.35,5.241,5.238,5.241c2.891,0,5.24-2.351,5.24-5.241v-6.74C336.376,128.255,334.026,125.904,331.136,125.904"/>
	<path clip-path="url(#SVGID_2_)" fill="#40434B" d="M331.136,179.783c-2.889,0-5.238,2.351-5.238,5.24v6.698
		c0,2.89,2.35,5.24,5.238,5.24c2.891,0,5.24-2.35,5.24-5.24v-6.698C336.376,182.134,334.026,179.783,331.136,179.783"/>
	<path clip-path="url(#SVGID_2_)" fill="#40434B" d="M331.136,98.986c-2.889,0-5.238,2.351-5.238,5.24v6.74
		c0,2.89,2.35,5.24,5.238,5.24c2.891,0,5.24-2.35,5.24-5.24v-6.74C336.376,101.337,334.026,98.986,331.136,98.986"/>
	<path clip-path="url(#SVGID_2_)" fill="#40434B" d="M331.136,206.7c-2.889,0-5.238,2.351-5.238,5.24v6.74
		c0,2.867,2.35,5.199,5.238,5.199c2.891,0,5.24-2.332,5.24-5.199v-6.74C336.376,209.051,334.026,206.7,331.136,206.7"/>
	<path clip-path="url(#SVGID_2_)" fill="#40434B" d="M331.136,260.537c-2.889,0-5.238,2.351-5.238,5.24v6.74
		c0,2.889,2.35,5.239,5.238,5.239c2.891,0,5.24-2.351,5.24-5.239v-6.74C336.376,262.888,334.026,260.537,331.136,260.537"/>
	<path clip-path="url(#SVGID_2_)" fill="#40434B" d="M331.136,287.498c-2.889,0-5.238,2.331-5.238,5.197v6.74
		c0,2.89,2.35,5.24,5.238,5.24c2.891,0,5.24-2.351,5.24-5.24v-6.74C336.376,289.829,334.026,287.498,331.136,287.498"/>
	<path clip-path="url(#SVGID_2_)" fill="#40434B" d="M331.136,233.619c-2.889,0-5.238,2.351-5.238,5.24v6.739
		c0,2.89,2.35,5.24,5.238,5.24c2.891,0,5.24-2.351,5.24-5.24v-6.739C336.376,235.97,334.026,233.619,331.136,233.619"/>
	<path clip-path="url(#SVGID_2_)" fill="#40434B" d="M358.055,125.904c-2.89,0-5.239,2.351-5.239,5.24v6.74
		c0,2.89,2.35,5.241,5.239,5.241s5.239-2.351,5.239-5.241v-6.74C363.294,128.255,360.944,125.904,358.055,125.904"/>
	<path clip-path="url(#SVGID_2_)" fill="#40434B" d="M358.055,152.864c-2.89,0-5.239,2.332-5.239,5.198v6.74
		c0,2.89,2.35,5.24,5.239,5.24s5.239-2.35,5.239-5.24v-6.74C363.294,155.196,360.944,152.864,358.055,152.864"/>
	<path clip-path="url(#SVGID_2_)" fill="#40434B" d="M358.055,98.986c-2.89,0-5.239,2.351-5.239,5.24v6.74
		c0,2.89,2.35,5.24,5.239,5.24s5.239-2.35,5.239-5.24v-6.74C363.294,101.337,360.944,98.986,358.055,98.986"/>
	<path clip-path="url(#SVGID_2_)" fill="#40434B" d="M358.055,206.7c-2.89,0-5.239,2.351-5.239,5.24v6.74
		c0,2.867,2.35,5.199,5.239,5.199s5.239-2.332,5.239-5.199v-6.74C363.294,209.051,360.944,206.7,358.055,206.7"/>
	<path clip-path="url(#SVGID_2_)" fill="#40434B" d="M358.055,179.783c-2.89,0-5.239,2.351-5.239,5.24v6.698
		c0,2.89,2.35,5.24,5.239,5.24s5.239-2.35,5.239-5.24v-6.698C363.294,182.134,360.944,179.783,358.055,179.783"/>
	<path clip-path="url(#SVGID_2_)" fill="#40434B" d="M358.055,287.498c-2.89,0-5.239,2.331-5.239,5.197v6.74
		c0,2.89,2.35,5.24,5.239,5.24s5.239-2.351,5.239-5.24v-6.74C363.294,289.829,360.944,287.498,358.055,287.498"/>
	<path clip-path="url(#SVGID_2_)" fill="#40434B" d="M358.055,260.537c-2.89,0-5.239,2.351-5.239,5.24v6.74
		c0,2.889,2.35,5.239,5.239,5.239s5.239-2.351,5.239-5.239v-6.74C363.294,262.888,360.944,260.537,358.055,260.537"/>
	<path clip-path="url(#SVGID_2_)" fill="#40434B" d="M358.055,233.619c-2.89,0-5.239,2.351-5.239,5.24v6.739
		c0,2.89,2.35,5.24,5.239,5.24s5.239-2.351,5.239-5.24v-6.739C363.294,235.97,360.944,233.619,358.055,233.619"/>
	<path clip-path="url(#SVGID_2_)" fill="#9D9F90" d="M418.06,226.86c-10.38,0-18.824,8.445-18.824,18.825
		s8.444,18.825,18.824,18.825c10.36,0,18.79-8.445,18.79-18.825S428.42,226.86,418.06,226.86 M418.06,255.571
		c-5.471,0-9.922-4.436-9.922-9.886s4.451-9.885,9.922-9.885c5.451,0,9.887,4.435,9.887,9.885S423.511,255.571,418.06,255.571"/>
	<rect x="130.686" y="331.697" clip-path="url(#SVGID_2_)" fill="#9D9F90" width="17.179" height="10.445"/>
	<rect x="130.686" y="385.533" clip-path="url(#SVGID_2_)" fill="#9D9F90" width="17.179" height="10.479"/>
	<path clip-path="url(#SVGID_2_)" fill="#9D9F90" d="M221.921,22.03H56.63v178.772h41.049l0.41,0.846
		c1.725,3.556,5.376,5.853,9.304,5.853h16.554v16.479H76.808v26.919H56.63v172.031h165.291V250.899h-20.177V223.98h-47.139v-16.479
		h16.554c3.927,0,7.578-2.297,9.303-5.853l0.41-0.846h41.049V22.03z M107.466,187.322h16.48v9.74h-16.48V187.322z M211.441,412.45
		H67.11v-43.355h144.331V412.45z M211.441,358.614H67.11v-43.397h144.331V358.614z M201.744,263.274v-1.896h9.697v43.398H67.11
		v-43.398h9.698v1.896c0,17.514,14.253,31.763,31.772,31.763h61.367C187.48,295.037,201.744,280.788,201.744,263.274
		 M191.263,234.461v28.813c0,11.736-9.551,21.283-21.291,21.283H108.58c-11.741,0-21.291-9.547-21.291-21.283v-28.813H191.263z
		 M134.426,187.322h9.698v36.658h-9.698V187.322z M171.086,197.062h-16.48v-9.74h16.48V197.062z M211.441,190.322h-29.918v-3.107
		c0-5.72-4.649-10.373-10.364-10.373h-63.766c-5.715,0-10.364,4.653-10.364,10.373v3.107H67.11V32.511h144.331V190.322z"/>
	<path clip-path="url(#SVGID_2_)" fill="#9D9F90" d="M80.408,71.989c-0.848,0.844-1.314,1.969-1.315,3.168
		c-0.001,1.202,0.466,2.332,1.316,3.183c0.833,0.832,1.989,1.31,3.172,1.31c1.2,0,2.331-0.467,3.183-1.315l26.915-26.922
		c1.75-1.749,1.75-4.594,0-6.343c-0.849-0.849-1.972-1.317-3.162-1.317c-1.191,0.001-2.309,0.467-3.153,1.314L80.408,71.989z"/>
	<path clip-path="url(#SVGID_2_)" fill="#9D9F90" d="M116.651,62.81c-1.203,0-2.333,0.466-3.183,1.313L99.999,77.568
		c-0.848,0.845-1.315,1.97-1.316,3.167c-0.001,1.203,0.467,2.333,1.317,3.183c0.832,0.833,1.988,1.31,3.172,1.31
		c1.2,0,2.331-0.466,3.184-1.314l13.468-13.476c0.848-0.845,1.314-1.965,1.315-3.152c0.001-1.193-0.467-2.317-1.315-3.166
		C118.979,63.275,117.852,62.81,116.651,62.81"/>
</g>
</svg>
