<?xml version="1.0" encoding="utf-8"?>
<!-- Generator: Adobe Illustrator 16.0.0, SVG Export Plug-In . SVG Version: 6.00 Build 0)  -->
<!DOCTYPE svg PUBLIC "-//W3C//DTD SVG 1.1//EN" "http://www.w3.org/Graphics/SVG/1.1/DTD/svg11.dtd">
<svg version="1.1" id="Layer_1" xmlns="http://www.w3.org/2000/svg" xmlns:xlink="http://www.w3.org/1999/xlink" x="0px" y="0px"
	 width="490.067px" height="413.343px" viewBox="0 0 490.067 413.343" enable-background="new 0 0 490.067 413.343"
	 xml:space="preserve">
<g>
	<defs>
		<rect id="SVGID_1_" width="490.067" height="413.343"/>
	</defs>
	<clipPath id="SVGID_2_">
		<use xlink:href="#SVGID_1_"  overflow="visible"/>
	</clipPath>
	<path clip-path="url(#SVGID_2_)" fill="#9D9F90" d="M338.533,276.176c0-17.743-12.617-33.195-30-36.743l-2-0.407v-74.849
		c0-11.855-9.645-21.5-21.5-21.5h-224c-11.855,0-21.5,9.645-21.5,21.5v74.849l-2,0.407c-17.383,3.548-30,19-30,36.743v128
		c0,3.033,2.467,5.5,5.5,5.5h32c3.033,0,5.5-2.467,5.5-5.5v-26.5h245v26.5c0,3.033,2.467,5.5,5.5,5.5h32c3.033,0,5.5-2.467,5.5-5.5
		V276.176z M50.533,164.176c0-5.79,4.71-10.5,10.5-10.5h224c5.79,0,10.5,4.71,10.5,10.5v74.5h-21v-34.5
		c0-11.855-9.645-21.5-21.5-21.5h-48c-11.855,0-21.5,9.645-21.5,21.5v34.5h-21v-34.5c0-11.855-9.645-21.5-21.5-21.5h-48
		c-11.855,0-21.5,9.645-21.5,21.5v34.5h-21V164.176z M263.533,204.176v34.5h-69v-34.5c0-5.79,4.71-10.5,10.5-10.5h48
		C258.823,193.676,263.533,198.386,263.533,204.176 M151.533,204.176v34.5h-69v-34.5c0-5.79,4.71-10.5,10.5-10.5h48
		C146.823,193.676,151.533,198.386,151.533,204.176 M327.533,398.676h-21v-26.5c0-3.032-2.467-5.5-5.5-5.5h-256
		c-3.033,0-5.5,2.468-5.5,5.5v26.5h-21v-69h309V398.676z M327.533,318.676h-309v-42.5c0-14.611,11.888-26.5,26.5-26.5h256
		c14.612,0,26.5,11.889,26.5,26.5V318.676z"/>
	<path clip-path="url(#SVGID_2_)" fill="#9D9F90" d="M481.814,377.556v-117.5c0-3.032-2.469-5.5-5.5-5.5h-112
		c-3.033,0-5.5,2.468-5.5,5.5v117.5h11v-48h101v48H481.814z M369.814,265.556h101v53h-101V265.556z"/>
	<rect x="407.533" y="275.716" clip-path="url(#SVGID_2_)" fill="#9D9F90" width="27" height="11"/>
	<path clip-path="url(#SVGID_2_)" fill="#9D9F90" d="M457.533,194.428l-15.999-47.998c-0.754-2.245-2.852-3.754-5.221-3.754h-32
		c-2.368,0-4.467,1.514-5.222,3.766l-15.999,47.997c-0.558,1.669-0.273,3.521,0.761,4.955c1.029,1.429,2.696,2.282,4.46,2.282h26.5
		v36.919h-16v11h43v-11h-16v-36.919h26.5c1.764,0,3.43-0.854,4.457-2.286C457.803,197.957,458.088,196.103,457.533,194.428
		 M395.94,190.676l12.339-37h24.076l12.331,37H395.94z"/>
	<path clip-path="url(#SVGID_2_)" fill="#40434B" d="M246.057,14.343l232.677,122.678v48.176h11v-51.741
		c0-2.162-1.277-4.135-3.254-5.025L247.284,2.833c-1.432-0.636-3.074-0.635-4.504,0.002L3.584,128.433
		c-1.974,0.889-3.251,2.861-3.251,5.023v51.741h11v-48.184l0.591-0.265l233.11-122.863L246.057,14.343z"/>
</g>
</svg>
