<?xml version="1.0" encoding="utf-8"?>
<!-- Generator: Adobe Illustrator 16.0.0, SVG Export Plug-In . SVG Version: 6.00 Build 0)  -->
<!DOCTYPE svg PUBLIC "-//W3C//DTD SVG 1.1//EN" "http://www.w3.org/Graphics/SVG/1.1/DTD/svg11.dtd">
<svg version="1.1" id="Layer_1" xmlns="http://www.w3.org/2000/svg" xmlns:xlink="http://www.w3.org/1999/xlink" x="0px" y="0px"
	 width="404.051px" height="403.8px" viewBox="0 0 404.051 403.8" enable-background="new 0 0 404.051 403.8" xml:space="preserve">
<g>
	<defs>
		<rect id="SVGID_1_" width="404.051" height="403.8"/>
	</defs>
	<clipPath id="SVGID_2_">
		<use xlink:href="#SVGID_1_"  overflow="visible"/>
	</clipPath>
	<path clip-path="url(#SVGID_2_)" fill="#9D9F90" d="M403.634,236.149c0-2.729-2.221-4.95-4.951-4.95H4.284
		c-2.73,0-4.951,2.221-4.951,4.95v163.2c0,2.729,2.221,4.95,4.951,4.95h394.398c2.73,0,4.951-2.221,4.951-4.95V236.149z
		 M114.933,394.399H9.234v-92.1h105.699V394.399z M114.933,292.399H9.234v-51.3h105.699V292.399z M278.133,394.399h-153.3V241.1
		h153.3V394.399z M393.733,394.399H288.034V241.1h105.699V394.399z"/>
	<path clip-path="url(#SVGID_2_)" fill="#9D9F90" d="M118.034,4.95c0-2.73-2.221-4.95-4.951-4.95H4.284
		c-2.73,0-4.951,2.22-4.951,4.95v81.6c0,2.729,2.221,4.95,4.951,4.95h108.799c2.73,0,4.951-2.221,4.951-4.95V4.95z M108.133,81.6
		H9.234V9.9h98.899V81.6z"/>
	<path clip-path="url(#SVGID_2_)" fill="#9D9F90" d="M403.634,4.95c0-2.73-2.221-4.95-4.951-4.95h-108.8
		c-2.729,0-4.95,2.22-4.95,4.95v81.6c0,2.729,2.222,4.95,4.95,4.95h108.8c2.73,0,4.951-2.221,4.951-4.95V4.95z M393.733,81.6
		h-98.899V9.9h98.899V81.6z"/>
	<rect x="46.183" y="53.651" clip-path="url(#SVGID_2_)" fill="#9D9F90" width="25.001" height="11.399"/>
	<rect x="331.783" y="53.651" clip-path="url(#SVGID_2_)" fill="#9D9F90" width="25.001" height="11.399"/>
	<rect x="182.183" y="101.25" clip-path="url(#SVGID_2_)" fill="#9D9F90" width="11.4" height="11.4"/>
	<rect x="209.383" y="101.25" clip-path="url(#SVGID_2_)" fill="#9D9F90" width="11.4" height="11.4"/>
	<path clip-path="url(#SVGID_2_)" fill="#9D9F90" d="M254.034,290.55c0-2.729-2.221-4.95-4.951-4.95h-95.2
		c-2.729,0-4.95,2.222-4.95,4.95v81.6c0,2.729,2.221,4.95,4.95,4.95h95.2c2.73,0,4.951-2.221,4.951-4.95V290.55z M244.133,367.199
		h-85.3V295.5h85.3V367.199z"/>
	<rect x="141.383" y="257.649" clip-path="url(#SVGID_2_)" fill="#9D9F90" width="11.4" height="11.4"/>
	<rect x="168.583" y="257.649" clip-path="url(#SVGID_2_)" fill="#9D9F90" width="11.4" height="11.4"/>
	<rect x="195.783" y="257.649" clip-path="url(#SVGID_2_)" fill="#9D9F90" width="11.4" height="11.4"/>
	<rect x="222.983" y="257.649" clip-path="url(#SVGID_2_)" fill="#9D9F90" width="11.4" height="11.4"/>
	<rect x="250.183" y="257.649" clip-path="url(#SVGID_2_)" fill="#9D9F90" width="11.4" height="11.4"/>
	<rect x="331.783" y="257.649" clip-path="url(#SVGID_2_)" fill="#9D9F90" width="25.001" height="11.4"/>
	<rect x="46.183" y="257.649" clip-path="url(#SVGID_2_)" fill="#9D9F90" width="31.801" height="11.4"/>
	<rect x="46.183" y="318.85" clip-path="url(#SVGID_2_)" fill="#9D9F90" width="31.801" height="11.4"/>
	<rect x="175.383" y="312.049" clip-path="url(#SVGID_2_)" fill="#9D9F90" width="52.2" height="11.401"/>
	<path clip-path="url(#SVGID_2_)" fill="#40434B" d="M391.515,162.517l-0.731-0.261v-34.327h13.602v-11.4h-93.002v11.4h13.6v34.327
		l-0.73,0.261c-7.696,2.744-12.869,10.024-12.869,18.113c0,10.641,8.658,19.299,19.301,19.299c4.697,0,9.267-1.783,12.863-5.021
		l0.737-0.663l0.736,0.664c3.588,3.237,8.157,5.02,12.862,5.02c4.698,0,9.268-1.783,12.864-5.021l0.737-0.663l0.737,0.664
		c3.588,3.237,8.155,5.02,12.861,5.02c10.644,0,19.302-8.658,19.302-19.299C404.385,172.542,399.211,165.261,391.515,162.517
		 M330.684,188.529c-4.357,0-7.9-3.543-7.9-7.899c0-4.357,3.543-7.9,7.9-7.9c4.355,0,7.899,3.543,7.899,7.9
		C338.583,184.986,335.039,188.529,330.684,188.529 M345.02,166.352l-0.737,0.663l-0.736-0.664
		c-1.874-1.693-4.038-2.982-6.431-3.833l-0.73-0.26v-34.328h15.799v34.328l-0.732,0.26
		C349.068,163.364,346.904,164.654,345.02,166.352 M357.883,188.529c-4.356,0-7.899-3.543-7.899-7.899c0-4.357,3.543-7.9,7.899-7.9
		s7.899,3.543,7.899,7.9C365.782,184.986,362.239,188.529,357.883,188.529 M372.22,166.352l-0.737,0.663l-0.736-0.664
		c-1.874-1.693-4.038-2.982-6.432-3.833l-0.731-0.26v-34.328h15.8v34.328l-0.731,0.26
		C376.27,163.364,374.104,164.654,372.22,166.352 M385.083,188.529c-4.355,0-7.898-3.543-7.898-7.899c0-4.357,3.543-7.9,7.898-7.9
		c4.356,0,7.899,3.543,7.899,7.9C392.982,184.986,389.439,188.529,385.083,188.529"/>
	<path clip-path="url(#SVGID_2_)" fill="#40434B" d="M7.053,184.66l20.401,20.4c1.077,1.076,2.509,1.67,4.03,1.67
		s2.952-0.594,4.03-1.67l16.369-16.372l16.371,16.371c1.078,1.077,2.508,1.671,4.03,1.671c1.521,0,2.952-0.594,4.03-1.67l20.4-20.4
		c1.078-1.079,1.671-2.51,1.671-4.03c0-1.521-0.593-2.952-1.671-4.029l-18.73-18.731v-29.94h13.6v-11.4H12.183v11.4h13.6v29.94
		l-18.73,18.731c-1.078,1.077-1.672,2.508-1.672,4.029C5.381,182.15,5.975,183.581,7.053,184.66 M84.624,180.63l-12.34,12.34
		l-12.341-12.34l12.341-12.341L84.624,180.63z M37.184,127.93h29.4v29.94l-14.701,14.7l-14.699-14.7V127.93z M31.484,168.289
		l12.34,12.341l-12.34,12.34l-12.341-12.34L31.484,168.289z"/>
	<path clip-path="url(#SVGID_2_)" fill="#9D9F90" d="M280.244,131.183L239.443,76.78c-0.93-1.24-2.411-1.98-3.96-1.98h-1.849V4.95
		c0-2.729-2.222-4.95-4.951-4.95h-54.4c-2.729,0-4.95,2.221-4.95,4.95V74.8h-1.85c-1.549,0-3.03,0.74-3.961,1.98l-40.799,54.4
		c-1.134,1.506-1.314,3.492-0.471,5.184c0.847,1.687,2.545,2.736,4.431,2.736h149.6c1.887,0,3.585-1.05,4.433-2.74
		C281.559,134.671,281.377,132.687,280.244,131.183 M179.233,9.9h44.499v64.9h-44.499V9.9z M136.583,129.2l33.375-44.5h63.049
		l33.375,44.5H136.583z"/>
</g>
</svg>
