<?xml version="1.0" encoding="utf-8"?>
<!-- Generator: Adobe Illustrator 22.0.0, SVG Export Plug-In . SVG Version: 6.00 Build 0)  -->
<svg version="1.1" id="Layer_1" xmlns="http://www.w3.org/2000/svg" xmlns:xlink="http://www.w3.org/1999/xlink" x="0px" y="0px"
	 viewBox="0 0 404.2 174.1" style="enable-background:new 0 0 404.2 174.1;" xml:space="preserve">
<style type="text/css">
	.st0{fill:#FFFFFF;}
</style>
<g>
	<polygon class="st0" points="155.3,80.9 156.4,80.9 156.4,62.7 162.8,62.7 162.8,61.6 148.9,61.6 148.9,62.7 155.3,62.7 	"/>
	<polygon class="st0" points="185.3,80.9 186.4,80.9 186.4,61.6 185.3,61.6 185.3,70.4 173.3,70.4 173.3,61.6 172.1,61.6 
		172.1,80.9 173.3,80.9 173.3,71.4 185.3,71.4 	"/>
	<polygon class="st0" points="199.3,71.4 209,71.4 209,70.4 199.3,70.4 199.3,62.7 209.6,62.7 209.6,61.6 198.1,61.6 198.1,80.9 
		210,80.9 210,79.8 199.3,79.8 	"/>
	<polygon class="st0" points="160.7,110.9 152.7,93.4 151.2,93.4 151.2,112.7 152.3,112.7 152.3,95.3 160.2,112.7 161.1,112.7 
		169,95.3 169,112.7 170.1,112.7 170.1,93.4 168.7,93.4 	"/>
	<path class="st0" d="M197.9,95.7c-0.9-0.9-1.9-1.6-3.1-2.1c-1.2-0.5-2.5-0.8-4-0.8c-1.4,0-2.8,0.3-4,0.8c-1.2,0.5-2.3,1.2-3.1,2.1
		c-0.9,0.9-1.6,2-2.1,3.2c-0.5,1.2-0.7,2.6-0.7,4.1s0.3,2.9,0.7,4.1c0.5,1.2,1.2,2.3,2.1,3.2c0.9,0.9,1.9,1.6,3.1,2.1
		c1.2,0.5,2.5,0.8,3.9,0.8c1.4,0,2.7-0.3,3.9-0.8c1.2-0.5,2.3-1.2,3.1-2.1c0.9-0.9,1.6-2,2.1-3.2c0.5-1.2,0.7-2.6,0.7-4.1
		c0-1.5-0.3-2.8-0.7-4.1C199.5,97.7,198.8,96.6,197.9,95.7z M199,106.6c-0.4,1.1-1,2.1-1.8,2.9c-0.8,0.8-1.7,1.5-2.8,1.9
		c-1.1,0.5-2.3,0.7-3.6,0.7s-2.5-0.2-3.6-0.7c-1.1-0.5-2-1.1-2.8-1.9c-0.8-0.8-1.4-1.8-1.8-2.9c-0.4-1.1-0.6-2.3-0.6-3.6
		c0-1.3,0.2-2.5,0.6-3.6c0.4-1.1,1-2.1,1.8-2.9c0.8-0.8,1.7-1.5,2.8-1.9c1.1-0.5,2.3-0.7,3.5-0.7c1.3,0,2.5,0.2,3.5,0.7
		c1.1,0.5,2,1.1,2.8,1.9c0.8,0.8,1.4,1.8,1.8,2.9c0.4,1.1,0.6,2.3,0.6,3.6C199.6,104.3,199.4,105.5,199,106.6z"/>
	<polygon class="st0" points="224.7,110.9 211.6,93.4 210.4,93.4 210.4,112.7 211.5,112.7 211.5,95.1 224.5,112.5 224.6,112.7 
		225.9,112.7 225.9,93.4 224.7,93.4 	"/>
	<polygon class="st0" points="235.2,94.4 241.6,94.4 241.6,112.7 242.7,112.7 242.7,94.4 249.1,94.4 249.1,93.4 235.2,93.4 	"/>
	<path class="st0" d="M271.9,109.5c-0.7,0.9-1.6,1.5-2.7,1.9c-1.1,0.4-2.2,0.7-3.4,0.7c-1.3,0-2.5-0.2-3.6-0.7
		c-1.1-0.5-2-1.1-2.7-1.9c-0.8-0.8-1.4-1.8-1.8-2.9c-0.4-1.1-0.6-2.3-0.6-3.6s0.2-2.5,0.6-3.6c0.4-1.1,1-2.1,1.8-2.9
		c0.8-0.8,1.7-1.5,2.7-1.9c1.1-0.5,2.3-0.7,3.6-0.7c0.5,0,1,0,1.5,0.1c0.5,0.1,1,0.2,1.5,0.4c0.5,0.2,1,0.4,1.4,0.7
		c0.4,0.3,0.9,0.6,1.2,1l0.2,0.2l0.7-0.8l-0.2-0.2c-0.8-0.8-1.8-1.5-2.9-1.9c-1.1-0.4-2.3-0.6-3.5-0.6c-1.4,0-2.8,0.3-4,0.8
		c-1.2,0.5-2.3,1.2-3.1,2.1c-0.9,0.9-1.6,2-2,3.2c-0.5,1.2-0.7,2.6-0.7,4.1c0,1.5,0.2,2.8,0.7,4.1c0.5,1.2,1.2,2.3,2,3.2
		c0.9,0.9,1.9,1.6,3.1,2.1c1.2,0.5,2.5,0.8,4,0.8c1.3,0,2.6-0.2,3.8-0.7c1.2-0.5,2.3-1.2,3.1-2.2l0.2-0.2l-0.8-0.8L271.9,109.5z"/>
	<polygon class="st0" points="283.9,93.4 282.7,93.4 282.7,112.7 293.2,112.7 293.2,111.6 283.9,111.6 	"/>
	<path class="st0" d="M309.5,93.4H309l0,0l0,0h-0.5l-8.4,19.3h1.2l2.3-5.4h10.5l2.2,5.4h1.2l-8-19.1L309.5,93.4z M304,106.2
		l4.9-11.6l4.8,11.6H304z"/>
	<rect x="326.8" y="93.4" class="st0" width="1.1" height="19.3"/>
	<path class="st0" d="M346,103.2c0.5,0,1-0.1,1.5-0.2c0.7-0.2,1.3-0.4,1.8-0.8c0.6-0.4,1-0.9,1.4-1.5c0.4-0.6,0.5-1.4,0.5-2.3
		c0-1-0.2-1.8-0.6-2.5c-0.4-0.6-0.9-1.1-1.5-1.5c-0.6-0.4-1.3-0.6-2-0.7c-0.7-0.1-1.4-0.2-2.1-0.2h-5.5v19.3h1.1v-9.5h4l5.7,9.5h1.3
		L346,103.2z M340.7,102.2v-7.8h4c0.7,0,1.4,0.1,2,0.2c0.6,0.1,1.2,0.3,1.7,0.6c0.5,0.3,0.9,0.7,1.2,1.2c0.3,0.5,0.4,1.1,0.4,1.9
		c0,1.3-0.4,2.2-1.3,2.9c-0.9,0.7-2.1,1-3.8,1H340.7z"/>
	<path class="st0" d="M52.6,122h78.5V52.3H52.6V122z M53.6,53.3h76.5V121H53.6V53.3z"/>
	<path class="st0" d="M64.2,61.5v51.2h1.3V84.3l26.3,29.3l0.1,0.2l26.4-30v28.9h1.3V61.5L91.9,93L64.2,61.5z M118.3,81.9l-26.4,30
		L65.5,82.5v-1.9l26.3,29.3l0.1,0.2l26.4-30V81.9z M118.3,78.1l-26.4,30L65.5,78.7v-1.9l26.3,29.3l0.1,0.2l26.4-30V78.1z
		 M118.3,74.4l-26.4,30L65.5,74.9V73l26.3,29.3l0.1,0.2l26.4-30V74.4z M118.3,70.6l-26.4,30L65.5,71.2v-2.5l26.3,29.9l0.1,0.2
		l26.4-30V70.6z M118.3,66.8l-26.4,30l-26.4-30v-1.9l26.3,29.9l0.1,0.2l26.4-30V66.8z"/>
</g>
</svg>
