<?xml version="1.0" encoding="utf-8"?>
<!-- Generator: Adobe Illustrator 16.0.0, SVG Export Plug-In . SVG Version: 6.00 Build 0)  -->
<!DOCTYPE svg PUBLIC "-//W3C//DTD SVG 1.1//EN" "http://www.w3.org/Graphics/SVG/1.1/DTD/svg11.dtd">
<svg version="1.1" id="Layer_1" xmlns="http://www.w3.org/2000/svg" xmlns:xlink="http://www.w3.org/1999/xlink" x="0px" y="0px"
	 width="257.125px" height="45.271px" viewBox="0 0 257.125 45.271" enable-background="new 0 0 257.125 45.271"
	 xml:space="preserve">
<g>
	<path fill="#FFFFFF" d="M73.544,21.205c-4.684-1.11-5.439-1.948-5.439-3.524v-0.066c0-1.57,1.468-2.626,3.654-2.626
		c2.058,0,4.094,0.772,6.225,2.362l0.103,0.076l2.33-3.284l-0.092-0.074c-2.467-1.981-5.247-2.944-8.499-2.944
		c-4.739,0-8.048,2.818-8.048,6.854v0.067c0,4.338,2.749,5.826,7.821,7.05c4.371,1.01,5.141,1.908,5.141,3.424v0.068
		c0,1.67-1.602,2.791-3.985,2.791c-2.625,0-4.86-0.922-7.245-2.986l-0.097-0.082l-2.613,3.107l0.091,0.08
		c2.743,2.451,6.119,3.746,9.764,3.746c5.111,0,8.413-2.77,8.413-7.055v-0.066C81.067,23.898,78.06,22.302,73.544,21.205
		L73.544,21.205z"/>
	<polygon fill="#FFFFFF" points="95.805,25.033 107.44,25.033 107.44,21.136 95.805,21.136 95.805,15.353 108.933,15.353 
		108.933,11.455 91.476,11.455 91.476,34.912 109.099,34.912 109.099,31.014 95.805,31.014 95.805,25.033 	"/>
	<polygon fill="#FFFFFF" points="135.75,27.26 123.543,11.503 123.506,11.455 119.539,11.455 119.539,34.912 123.801,34.912 
		123.801,18.643 136.374,34.863 136.412,34.912 140.013,34.912 140.013,11.455 135.75,11.455 135.75,27.26 	"/>
	<polygon fill="#FFFFFF" points="149.925,15.485 157.284,15.485 157.284,34.912 161.646,34.912 161.646,15.485 169.005,15.485 
		169.005,11.455 149.925,11.455 149.925,15.485 	"/>
	<path fill="#FFFFFF" d="M193.734,19.139v0.066c0,2.28-1.824,3.753-4.649,3.753h-5.841v-7.54h5.809
		C192.028,15.418,193.734,16.775,193.734,19.139L193.734,19.139z M198.13,18.973v-0.065c0-2.017-0.677-3.778-1.961-5.098
		c-1.578-1.541-3.924-2.355-6.784-2.355h-10.469v23.458h4.328v-8.09h4.915l5.702,8.09h5.148l-6.304-8.84
		C196.206,25,198.13,22.486,198.13,18.973L198.13,18.973z"/>
	<polygon fill="#FFFFFF" points="213.065,25.033 224.701,25.033 224.701,21.136 213.065,21.136 213.065,15.353 226.193,15.353 
		226.193,11.455 208.736,11.455 208.736,34.912 226.359,34.912 226.359,31.014 213.065,31.014 213.065,25.033 	"/>
	<g>
		<defs>
			<rect id="SVGID_1_" width="257.125" height="45.271"/>
		</defs>
		<clipPath id="SVGID_2_">
			<use xlink:href="#SVGID_1_"  overflow="visible"/>
		</clipPath>
		<polygon clip-path="url(#SVGID_2_)" fill="#FFFFFF" points="248.616,22.917 256.652,11.652 256.795,11.455 251.811,11.455 
			246.075,19.78 240.41,11.509 240.373,11.455 235.257,11.455 243.402,22.985 234.925,34.912 239.909,34.912 245.943,26.156 
			252.009,34.912 257.125,34.912 248.616,22.917 		"/>
		<path clip-path="url(#SVGID_2_)" fill="#FFFFFF" d="M27.217,12.051c-1.508-0.806-3.287-1.212-5.305-1.212
			c-2.151,0-3.987,0.446-5.472,1.326v-1.91c0.001-0.27,0.08-6.622,5.311-6.622c5.403,0,5.465,6.525,5.465,6.804V12.051
			L27.217,12.051z M26.642,30.564c-1.096,0.82-2.647,1.271-4.411,1.273c-0.054,0-1.32,0.08-2.677-0.219
			c-1.682-0.369-2.736-1.15-3.069-2.32l-0.141-0.51l-6.064,0.002c-0.019,0-1.8,0.006-3.511-0.713
			c-2.109-0.885-3.135-2.381-3.135-4.574c0-5.384,6.528-5.438,6.804-5.439l2.752-0.002c0.025,1.712,0.808,3.162,2.329,4.36
			c1.403,1.106,3.719,1.915,6.698,2.344c3.764,0.541,5.674,1.693,5.674,3.426c0,0.41-0.044,0.703-0.292,1.275l0,0
			C27.479,29.742,27.104,30.219,26.642,30.564L26.642,30.564z M16.473,34.35c0.154,0.066,0.31,0.129,0.467,0.188
			c3.179,1.184,6.764,1.164,9.62,0.059c0.236-0.092,0.465-0.191,0.69-0.297v0.717c-0.001,0.271-0.08,6.623-5.311,6.623
			c-5.385,0-5.465-6.527-5.466-6.803V34.35L16.473,34.35z M29.33,23.605c-1.386-1.236-3.638-2.083-6.689-2.516
			c-2.622-0.387-3.866-0.952-4.451-1.359c-0.742-0.516-1.102-1.179-1.102-2.025c0-0.75,0.31-1.781,1.179-2.422
			c0.782-0.575,1.891-0.867,3.596-0.948c2.283-0.102,4.931,0.809,5.378,3.136l0.115,0.595h6.078c0.018,0,1.775-0.03,3.486,0.688
			c2.11,0.886,3.136,2.383,3.136,4.576c0,5.383-6.528,5.465-6.806,5.465h-1.769c0.012-0.158,0.019-0.316,0.019-0.475
			C31.5,26.477,30.769,24.891,29.33,23.605L29.33,23.605z M39.762,16.134L39.762,16.134c-2.605-1.625-5.5-1.752-6.326-1.752h-2.585
			v-3.945c0-0.841-0.129-3.79-1.782-6.442C27.437,1.381,24.907,0,21.751,0c-3.103,0-5.59,1.358-7.193,3.927
			c-1.625,2.605-1.751,5.502-1.751,6.326v4.152h-2.37c-0.841,0-3.79,0.129-6.442,1.782C1.382,17.819,0,20.349,0,23.504
			c0,3.102,1.358,5.59,3.927,7.191c2.604,1.627,5.5,1.754,6.325,1.754l2.589-0.002l-0.001,2.387c0,0.842,0.129,3.791,1.782,6.443
			c1.632,2.613,4.162,3.994,7.317,3.994c3.103,0,5.59-1.357,7.193-3.926c1.625-2.605,1.75-5.5,1.75-6.326v-2.594h2.369
			c0.84,0,3.79-0.129,6.441-1.781c2.614-1.631,3.996-4.16,3.996-7.316C43.689,20.225,42.331,17.738,39.762,16.134L39.762,16.134z"/>
	</g>
</g>
</svg>
