<?xml version="1.0" encoding="utf-8"?>
<!-- Generator: Adobe Illustrator 16.0.0, SVG Export Plug-In . SVG Version: 6.00 Build 0)  -->
<!DOCTYPE svg PUBLIC "-//W3C//DTD SVG 1.1//EN" "http://www.w3.org/Graphics/SVG/1.1/DTD/svg11.dtd">
<svg version="1.1" id="Layer_1" xmlns="http://www.w3.org/2000/svg" xmlns:xlink="http://www.w3.org/1999/xlink" x="0px" y="0px"
	 width="887.68px" height="206.928px" viewBox="156.16 211.833 887.68 206.928"
	 enable-background="new 156.16 211.833 887.68 206.928" xml:space="preserve">
<g>
	<polygon fill="#FFFFFF" points="461.059,296.742 464.324,296.742 464.324,242.709 483.325,242.709 483.325,239.443 
		442.059,239.443 442.059,242.709 461.059,242.709 	"/>
	<polygon fill="#FFFFFF" points="550.124,296.742 553.39,296.742 553.39,239.443 550.124,239.443 550.124,265.569 514.498,265.569 
		514.498,239.443 510.936,239.443 510.936,296.742 514.498,296.742 514.498,268.538 550.124,268.538 	"/>
	<polygon fill="#FFFFFF" points="591.688,268.538 620.485,268.538 620.485,265.569 591.688,265.569 591.688,242.709 
		622.267,242.709 622.267,239.443 588.125,239.443 588.125,296.742 623.454,296.742 623.454,293.476 591.688,293.476 	"/>
	<polygon fill="#FFFFFF" points="477.091,385.807 453.34,333.853 448.887,333.853 448.887,391.15 452.152,391.15 452.152,339.493 
		475.606,391.15 478.278,391.15 501.731,339.493 501.731,391.15 504.998,391.15 504.998,333.853 500.841,333.853 	"/>
	<path fill="#FFFFFF" d="M587.531,340.681c-2.672-2.672-5.641-4.75-9.204-6.234c-3.562-1.485-7.422-2.376-11.875-2.376
		c-4.156,0-8.312,0.891-11.875,2.376c-3.562,1.484-6.828,3.562-9.204,6.234c-2.672,2.672-4.75,5.938-6.234,9.5
		s-2.078,7.719-2.078,12.172s0.891,8.609,2.078,12.173c1.484,3.562,3.562,6.828,6.234,9.5s5.642,4.75,9.204,6.234
		s7.422,2.375,11.578,2.375s8.016-0.891,11.578-2.375s6.829-3.562,9.204-6.234c2.672-2.672,4.75-5.938,6.234-9.5
		c1.484-3.563,2.078-7.72,2.078-12.173s-0.891-8.312-2.078-12.172C592.281,346.618,590.203,343.353,587.531,340.681z
		 M590.797,373.041c-1.188,3.266-2.969,6.234-5.344,8.609s-5.048,4.453-8.313,5.641c-3.266,1.484-6.828,2.078-10.688,2.078
		s-7.422-0.594-10.688-2.078s-5.938-3.266-8.313-5.641c-2.375-2.375-4.156-5.344-5.344-8.609c-1.188-3.267-1.781-6.829-1.781-10.688
		s0.594-7.422,1.781-10.688s2.969-6.234,5.344-8.609c2.376-2.375,5.048-4.453,8.313-5.641c3.266-1.484,6.828-2.078,10.391-2.078
		c3.859,0,7.422,0.594,10.391,2.078c3.266,1.484,5.938,3.266,8.313,5.641c2.375,2.375,4.156,5.344,5.344,8.609
		s1.781,6.828,1.781,10.688C592.578,366.212,591.984,369.774,590.797,373.041z"/>
	<polygon fill="#FFFFFF" points="667.096,385.807 628.204,333.853 624.642,333.853 624.642,391.15 627.907,391.15 627.907,338.899 
		666.502,390.557 666.799,391.15 670.658,391.15 670.658,333.853 667.096,333.853 	"/>
	<polygon fill="#FFFFFF" points="698.269,336.821 717.269,336.821 717.269,391.15 720.534,391.15 720.534,336.821 739.535,336.821 
		739.535,333.853 698.269,333.853 	"/>
	<path fill="#FFFFFF" d="M807.225,381.65c-2.079,2.672-4.751,4.453-8.017,5.641s-6.531,2.078-10.094,2.078
		c-3.859,0-7.422-0.594-10.688-2.078s-5.938-3.266-8.017-5.641c-2.375-2.375-4.156-5.344-5.344-8.609
		c-1.188-3.267-1.781-6.829-1.781-10.688s0.594-7.422,1.781-10.688s2.969-6.234,5.344-8.609s5.048-4.453,8.017-5.641
		c3.266-1.484,6.828-2.078,10.688-2.078c1.484,0,2.969,0,4.453,0.297s2.969,0.594,4.453,1.188s2.969,1.188,4.156,2.078
		s2.672,1.781,3.562,2.969l0.595,0.594l2.078-2.375l-0.594-0.594c-2.375-2.375-5.345-4.453-8.61-5.642
		c-3.266-1.188-6.828-1.781-10.391-1.781c-4.156,0-8.312,0.891-11.875,2.376c-3.562,1.484-6.828,3.562-9.204,6.234
		c-2.672,2.672-4.75,5.938-5.938,9.5c-1.484,3.562-2.078,7.719-2.078,12.172s0.594,8.312,2.078,12.173
		c1.484,3.562,3.562,6.828,5.938,9.5c2.672,2.672,5.642,4.75,9.204,6.234s7.422,2.375,11.875,2.375
		c3.859,0,7.719-0.594,11.281-2.078s6.828-3.562,9.204-6.531l0.594-0.594l-2.375-2.375L807.225,381.65z"/>
	<polygon fill="#FFFFFF" points="842.85,333.853 839.287,333.853 839.287,391.15 870.46,391.15 870.46,387.885 842.85,387.885 	"/>
	<path fill="#FFFFFF" d="M918.852,333.853h-1.484l0,0l0,0h-1.484l-24.938,57.298h3.562l6.828-16.031h31.173l6.531,16.031h3.562
		l-23.751-56.704V333.853z M902.523,371.854l14.547-34.438l14.251,34.438H902.523z"/>
	<rect x="970.213" y="333.853" fill="#FFFFFF" width="3.266" height="57.298"/>
	<path fill="#FFFFFF" d="M1027.214,362.946c1.484,0,2.97-0.297,4.454-0.594c2.078-0.594,3.859-1.188,5.344-2.375
		c1.781-1.188,2.969-2.672,4.156-4.453s1.484-4.156,1.484-6.828c0-2.969-0.594-5.344-1.781-7.422
		c-1.188-1.781-2.672-3.266-4.453-4.453s-3.859-1.781-5.938-2.078c-2.078-0.297-4.156-0.594-6.234-0.594h-16.328v57.298h3.266
		v-28.204h11.875l16.923,28.204h3.859L1027.214,362.946z M1011.479,359.978v-23.156h11.875c2.078,0,4.156,0.297,5.938,0.594
		c1.781,0.297,3.562,0.891,5.047,1.781s2.672,2.078,3.562,3.562s1.188,3.266,1.188,5.641c0,3.859-1.188,6.531-3.859,8.609
		s-6.234,2.969-11.281,2.969H1011.479z"/>
	<path fill="#FFFFFF" d="M156.16,418.761h233.053V211.833H156.16V418.761z M159.129,214.802h227.116v200.99H159.129V214.802z"/>
	<path fill="#FFFFFF" d="M190.599,239.146V391.15h3.859v-84.314l78.081,86.986l0.297,0.594l78.377-89.064v85.799h3.859V239.146
		l-82.236,93.518L190.599,239.146z M351.212,299.71l-78.377,89.065l-78.377-87.284v-5.641l78.081,86.987l0.297,0.594l78.377-89.065
		V299.71z M351.212,288.429l-78.377,89.065l-78.377-87.284v-5.641l78.081,86.987l0.297,0.594l78.377-89.065V288.429z
		 M351.212,277.444l-78.377,89.064l-78.377-87.58v-5.641l78.081,86.986l0.297,0.594l78.377-89.064V277.444z M351.212,266.163
		l-78.377,89.065l-78.377-87.283v-7.422l78.081,88.768l0.297,0.594l78.377-89.065V266.163z M351.212,254.881l-78.377,89.065
		l-78.377-89.065v-5.641l78.081,88.769l0.297,0.594l78.377-89.065V254.881z"/>
</g>
</svg>
