<?xml version="1.0" encoding="utf-8"?>
<!-- Generator: Adobe Illustrator 16.0.0, SVG Export Plug-In . SVG Version: 6.00 Build 0)  -->
<!DOCTYPE svg PUBLIC "-//W3C//DTD SVG 1.1//EN" "http://www.w3.org/Graphics/SVG/1.1/DTD/svg11.dtd">
<svg version="1.1" id="Layer_1" xmlns="http://www.w3.org/2000/svg" xmlns:xlink="http://www.w3.org/1999/xlink" x="0px" y="0px"
	 width="76.192px" height="110.89px" viewBox="0 0 76.192 110.89" enable-background="new 0 0 76.192 110.89" xml:space="preserve">
<g>
	<defs>
		<rect id="SVGID_1_" width="76.192" height="110.89"/>
	</defs>
	<clipPath id="SVGID_2_">
		<use xlink:href="#SVGID_1_"  overflow="visible"/>
	</clipPath>
	<g clip-path="url(#SVGID_2_)">
		<defs>
			<rect id="SVGID_3_" width="76.193" height="110.89"/>
		</defs>
		<clipPath id="SVGID_4_">
			<use xlink:href="#SVGID_3_"  overflow="visible"/>
		</clipPath>
		<g opacity="0.2" clip-path="url(#SVGID_4_)">
			<g>
				<defs>
					<rect id="SVGID_5_" x="20.351" y="69.016" width="35.333" height="35.333"/>
				</defs>
				<clipPath id="SVGID_6_">
					<use xlink:href="#SVGID_5_"  overflow="visible"/>
				</clipPath>
				<path clip-path="url(#SVGID_6_)" fill="#00B5AE" d="M55.684,86.682c0,9.757-7.91,17.667-17.667,17.667
					s-17.666-7.91-17.666-17.667s7.909-17.666,17.666-17.666S55.684,76.925,55.684,86.682"/>
			</g>
		</g>
		<path clip-path="url(#SVGID_4_)" fill="#00B5AE" d="M63.583,31.64c0-14.221-11.528-25.75-25.75-25.75s-25.75,11.529-25.75,25.75
			c0,4.459,1.739,8.427,3.933,12.01h-0.002l0.013,0.019c1.745,2.846,3.776,5.45,5.452,7.862c0.002,0.002,0.004,0.004,0.005,0.006
			l16.89,24.353L54.79,51.042c0.017-0.023,0.035-0.043,0.051-0.067c1.731-2.589,3.687-5.224,5.311-8.047l0.035-0.053h-0.005
			C62.123,39.486,63.583,35.827,63.583,31.64 M38.101,40.796c-5.54,0-10.031-4.491-10.031-10.031s4.491-10.031,10.031-10.031
			s10.031,4.491,10.031,10.031S43.641,40.796,38.101,40.796"/>
		<path clip-path="url(#SVGID_4_)" fill="#00B5AE" d="M38.101,81.534c-3.05,0-5.523,2.473-5.523,5.523
			c0,3.05,2.473,5.522,5.523,5.522c3.05,0,5.522-2.473,5.522-5.522C43.623,84.006,41.15,81.534,38.101,81.534"/>
	</g>
</g>
</svg>
